<svg width="67" height="75" viewBox="0 0 67 75" fill="none" xmlns="http://www.w3.org/2000/svg">
<path d="M47.4739 7.44444V8.35944H48.3889H59.5556C63.1558 8.35944 66.085 11.2886 66.085 14.8889V67C66.085 70.6003 63.1558 73.5294 59.5556 73.5294H7.44444C3.84417 73.5294 0.915 70.6003 0.915 67V14.8889C0.915 11.2886 3.84417 8.35944 7.44444 8.35944H18.6111H19.5261V7.44444V0.915H25.1406V7.44444V8.35944H26.0556H40.9444H41.8594V7.44444V0.915H47.4739V7.44444ZM6.52944 67V67.915H7.44444H59.563H60.4781L60.478 66.9999L60.4706 14.8889V14.8888L58.6406 14.8889V14.889V17.6961H48.3889H40.9444H26.0556H18.6111H7.44444H6.52944V18.6111V67Z" fill="#E5C3FF" stroke="#575757" stroke-width="1.83"/>
<path d="M19.1123 29.0385H48.3008V33.4122H19.1123V29.0385ZM19.1123 41.4459H32.7915V45.8196H19.1123V41.4459Z" fill="#E5C3FF" stroke="#575757" stroke-width="1.83"/>
</svg>
