<svg width="84" height="84" viewBox="0 0 84 84" fill="none" xmlns="http://www.w3.org/2000/svg">
<g clip-path="url(#clip0)">
<path d="M83.2806 17.5372C82.8279 17.0379 82.0561 17 81.5566 17.4527L77.949 20.7236C77.7978 20.8607 77.563 20.8494 77.4258 20.6981L74.7883 17.7889C74.3355 17.2897 73.5637 17.2517 73.0643 17.7045C72.5649 18.1572 72.5271 18.929 72.9798 19.4285L75.1325 21.8027L71.4926 25.1029C71.3099 25.2686 71.1816 25.4857 71.1248 25.7257L70.1231 29.9532C69.5823 32.2355 68.3781 34.2745 66.6404 35.8501L59.4852 42.3376C58.7624 42.9931 57.641 42.9381 56.9853 42.2152C56.6679 41.865 56.5056 41.412 56.5287 40.9399C56.5518 40.4678 56.7574 40.0328 57.1077 39.7153L60.2288 36.8856C60.7282 36.4328 60.7659 35.661 60.3132 35.1616C59.8605 34.6623 59.0887 34.6244 58.5892 35.0771L55.4682 37.9069C54.9749 38.3541 54.6034 38.8995 54.3701 39.5028C53.8495 39.2582 53.2773 39.1285 52.685 39.1279H52.6806C52.0668 39.1279 51.485 39.2678 50.9652 39.5174C50.8372 39.1114 50.6451 38.7339 50.4017 38.3954L53.4484 35.633C53.9478 35.1803 53.9855 34.4085 53.5328 33.909C53.0801 33.4098 52.3083 33.3719 51.8088 33.8246L50.0803 35.3917C49.8787 34.8431 49.5532 34.3313 49.106 33.8993L48.1421 32.9681L49.7055 31.5507C50.2049 31.098 50.2427 30.3262 49.79 29.8267C49.3372 29.3273 48.5654 29.2895 48.066 29.7423L46.3828 31.2684L42.9454 27.9475C43.4885 27.7338 43.9957 27.4046 44.427 26.9582C45.9448 25.3871 45.9933 22.93 44.6029 21.3013L49.7883 16.5998C52.2563 14.3623 55.2851 12.8231 58.5476 12.1488C58.7611 12.1047 58.9588 12.0041 59.1204 11.8577L62.9599 8.37632L69.4821 15.5699C69.7229 15.8356 70.0541 15.9706 70.3867 15.9706C70.6789 15.9706 70.9725 15.8661 71.206 15.6542C71.7055 15.2015 71.7432 14.4296 71.2905 13.9302L64.2832 6.20172C64.1461 6.05038 64.1576 5.81572 64.309 5.67854L67.9166 2.40746C68.416 1.95473 68.4537 1.18289 68.001 0.683469C67.5483 0.184043 66.7766 0.146289 66.277 0.599011L62.6694 3.8701C62.0008 4.47627 61.6947 5.33338 61.7588 6.17048L57.7237 9.82903C54.1605 10.6253 50.8562 12.3366 48.149 14.7912L42.8585 19.5879L37.3779 14.2942C35.3346 12.3203 32.7738 11.028 29.9722 10.5573L26.0611 9.89998L22.3743 6.33809C22.4649 5.50344 22.186 4.63705 21.5368 4.00988L18.0347 0.62635C17.5499 0.158006 16.7773 0.171187 16.3089 0.65613C15.8406 1.14091 15.8539 1.91356 16.3387 2.38191L19.8409 5.76544C19.9878 5.9075 19.9919 6.14249 19.85 6.28944L6.25481 20.3617C6.16661 20.453 6.0649 20.4735 5.99476 20.4747C5.92577 20.4734 5.82211 20.4587 5.73098 20.3707L2.22865 16.9871C1.74387 16.5188 0.971214 16.5321 0.502871 17.0169C0.0345266 17.5017 0.0478707 18.2744 0.532651 18.7427L4.03481 22.1262C4.56304 22.6366 5.25449 22.9158 5.98695 22.9158C6.00355 22.9158 6.02015 22.9156 6.03675 22.9153C6.15685 22.9132 6.27499 22.901 6.39199 22.8842L10.3077 26.6673C11.3378 30.1699 13.2637 33.354 15.8918 35.8931L18.4389 38.3539C18.6758 38.5827 18.9815 38.6966 19.2867 38.6966C19.6062 38.6966 19.9251 38.572 20.1647 38.3241C20.633 37.8393 20.6197 37.0667 20.1349 36.5983L17.5878 34.1375C15.1919 31.8228 13.4559 28.9024 12.5675 25.6917C12.5094 25.4816 12.396 25.2909 12.2391 25.1394L8.51175 21.5384L21.1033 8.50488L24.6371 11.9188C24.8144 12.0902 25.0395 12.2038 25.2828 12.2446L29.5672 12.9647C31.8803 13.3535 33.9947 14.4202 35.6816 16.05L42.6278 22.7607C43.3297 23.4388 43.349 24.5614 42.6711 25.2631C42.0667 25.8886 41.1097 25.9705 40.4117 25.5008L37.1387 22.379C36.6539 21.9106 35.8812 21.9238 35.4129 22.4087C34.9445 22.8935 34.9579 23.6662 35.4427 24.1345L47.4095 35.6555C47.7306 35.9656 47.8888 36.3822 47.8766 36.7993C47.6494 36.7585 47.4159 36.7359 47.177 36.7357H47.1726C46.6263 36.7357 46.1054 36.8465 45.631 37.0468C45.5656 36.091 45.1636 35.201 44.4803 34.5162C43.7303 33.7645 42.7324 33.3499 41.6706 33.3487H41.6659C41.3316 33.3487 41.0037 33.3899 40.6877 33.4695L36.3398 29.269C35.855 28.8007 35.0822 28.8139 34.614 29.2988C34.1457 29.7836 34.159 30.5563 34.6438 31.0246L38.5757 34.8233C38.2482 35.2265 38.0059 35.6844 37.8586 36.1751C37.3338 35.9256 36.7559 35.7936 36.1575 35.793H36.153C35.8506 35.793 35.5536 35.8276 35.2658 35.8931L32.5112 33.2319C32.0264 32.7636 31.2538 32.7767 30.7854 33.2617C30.3171 33.7465 30.3304 34.5191 30.8152 34.9875L33.1131 37.2075C32.5091 37.9222 32.1786 38.8174 32.1776 39.7641L32.1768 40.5703L28.6828 37.1948C28.198 36.7264 27.4253 36.7396 26.957 37.2245C26.4886 37.7093 26.502 38.482 26.9868 38.9503L32.173 43.9607L32.1686 47.8528C31.8718 47.8023 31.5913 47.6664 31.3641 47.4469L23.8765 40.2131C23.3917 39.7448 22.6189 39.758 22.1507 40.2429C21.6823 40.7277 21.6957 41.5003 22.1805 41.9687L28.7054 48.2724C28.2322 48.4796 27.7965 48.7743 27.42 49.1501C26.6237 49.9444 26.1847 51.0013 26.1833 52.1261L26.1726 61.7844C26.1694 64.6254 27.0164 67.366 28.6217 69.7098L30.8627 72.9817L30.857 78.106C30.7636 78.1784 30.6726 78.2548 30.5877 78.3397C30.0561 78.87 29.7628 79.5758 29.762 80.3249L29.7565 82.4282C29.7547 83.1022 30.2997 83.6501 30.9737 83.6519H30.977C31.6495 83.6519 32.1957 83.1076 32.1975 82.4347L32.203 80.3296C32.2031 80.2028 32.2622 80.1172 32.3117 80.0677C32.3612 80.0183 32.4401 79.9563 32.5737 79.9595L52.1403 79.9812C52.3445 79.9813 52.5105 80.1478 52.5104 80.3504L52.505 82.4536C52.5032 83.1276 53.0482 83.6754 53.7224 83.6772H53.7256C54.3982 83.6772 54.9444 83.1328 54.9461 82.4598L54.9515 80.3548C54.9527 79.4521 54.5242 78.6492 53.8614 78.1337L53.8674 72.6869C55.6744 69.5146 56.6301 65.9182 56.634 62.2639L56.6353 61.1514C56.6361 60.4772 56.0903 59.9303 55.4163 59.9295H55.4148C54.7414 59.9295 54.1951 60.4751 54.1943 61.1485L54.193 62.2609C54.1893 65.5922 53.2915 68.8688 51.5965 71.7367C51.4855 71.9243 51.4269 72.1383 51.4267 72.3564L51.4209 77.5392L33.2985 77.519L33.304 72.6057C33.3042 72.359 33.2298 72.1181 33.0905 71.9145L30.6355 68.3302C29.3101 66.3951 28.611 64.1325 28.6136 61.7869L28.6243 52.1286C28.6248 51.6558 28.8095 51.2116 29.1441 50.8776C29.4782 50.5443 29.9221 50.3608 30.3941 50.3608H30.3962C31.3721 50.3619 32.1651 51.1567 32.1639 52.1325L32.1592 56.3454C32.1586 57.0195 32.7044 57.5666 33.3784 57.5672H33.3797C34.0531 57.5672 34.5995 57.0216 34.6002 56.348L34.6049 52.1351L34.6186 39.7666C34.6191 39.3567 34.779 38.9715 35.0694 38.682C35.359 38.393 35.744 38.2338 36.1532 38.2338H36.1549C36.5649 38.2343 36.9501 38.3943 37.2396 38.6846C37.5291 38.9749 37.6882 39.3602 37.6877 39.7702L37.674 52.1386C37.6734 52.8127 38.2192 53.3598 38.8932 53.3604H38.8945C39.5259 53.3604 40.0455 52.8809 40.1087 52.2661C40.1129 52.2251 40.115 52.1834 40.115 52.1414L40.1316 37.3225C40.1321 36.9126 40.2921 36.5274 40.5824 36.2379C40.8721 35.9489 41.2569 35.7897 41.6662 35.7897H41.668C42.0779 35.7902 42.4631 35.9502 42.7526 36.2405C43.0421 36.5307 43.2013 36.9162 43.2008 37.3261L43.1843 52.145C43.1837 52.819 43.7295 53.3661 44.4035 53.3668H44.4048C45.0362 53.3668 45.5558 52.8872 45.619 52.2724C45.6232 52.2314 45.6253 52.1897 45.6253 52.1478L45.638 40.7098C45.6385 40.2999 45.7985 39.9147 46.0888 39.6252C46.3784 39.336 46.7635 39.1768 47.1727 39.1768H47.1744C48.0206 39.1778 48.7083 39.867 48.7073 40.7132L48.6946 52.1512C48.694 52.8252 49.2398 53.3723 49.9138 53.373H49.9151C50.5465 53.373 51.0661 52.8934 51.1293 52.2786C51.1335 52.2376 51.1356 52.1959 51.1356 52.1539L51.1457 43.1013C51.1472 42.2562 51.8352 41.5693 52.6803 41.5693H52.6819C53.0918 41.5698 53.477 41.7298 53.7665 42.0201C54.056 42.3103 54.2151 42.6958 54.2147 43.1057L54.2005 55.9352C54.1998 56.6092 54.7457 57.1563 55.4197 57.157H55.421C56.0944 57.157 56.6408 56.6113 56.6415 55.9378L56.6537 44.9057C57.1035 45.0959 57.5879 45.2079 58.0903 45.2324C58.1608 45.2359 58.2309 45.2376 58.301 45.2376C59.3479 45.2376 60.3435 44.8544 61.1244 44.1462L68.2796 37.6587C70.3844 35.7504 71.843 33.2806 72.498 30.5162L73.4124 26.6572L77.2086 23.2152C77.3251 23.2357 77.4428 23.2517 77.5627 23.2575C77.6097 23.2598 77.6566 23.261 77.7033 23.261C78.4022 23.261 79.067 23.005 79.5884 22.5321L83.196 19.2612C83.6958 18.8084 83.7333 18.0366 83.2806 17.5372Z" fill="#06A864"/>
</g>
<defs>
<clipPath id="clip0">
<rect width="83.4368" height="83.4368" fill="white" transform="translate(0.160156 0.261719)"/>
</clipPath>
</defs>
</svg>
