<svg width="69" height="84" viewBox="0 0 69 84" fill="none" xmlns="http://www.w3.org/2000/svg">
<path d="M24.959 38.541V49.19" stroke="#575757" stroke-width="1.82727"/>
<path d="M43.5918 38.541V48.3026" stroke="#575757" stroke-width="1.82727"/>
<path d="M24.0728 47.8589L33.8344 55.8456L44.0397 47.8589C51.287 48.1547 66.2252 50.6986 68 58.5079V82.9119H1V58.5079C3.62955 55.1864 11.2838 48.7567 21.8543 47.944C22.5803 47.8882 23.32 47.8589 24.0728 47.8589Z" fill="#7296DD"/>
<path d="M44.0397 47.8589L33.8344 55.8456L24.0728 47.8589C23.32 47.8589 22.5803 47.8882 21.8543 47.944M44.0397 47.8589C51.287 48.1547 66.2252 50.6986 68 58.5079V82.9119H1V58.5079C3.62955 55.1864 11.2838 48.7567 21.8543 47.944M44.0397 47.8589C52.204 50.3437 52.4702 57.4726 51.5828 60.7264C49.8079 60.7264 46.8795 61.2589 49.3642 63.3887C51.849 65.5185 49.2163 69.3048 47.5894 70.9317L33.8344 81.5807C30.5806 78.7706 23.6291 72.7066 21.8543 70.9317C19.6358 68.7132 16.9735 66.4947 19.1921 63.3887C20.9669 60.9039 19.9316 60.5785 19.1921 60.7264C12.8026 54.692 18.3046 49.6905 21.8543 47.944" stroke="#575757" stroke-width="1.82727"/>
<path d="M33.3912 80.2478C30.9064 77.4081 24.8128 56.8793 22.7422 47.8572C24.517 46.0824 32.0601 53.6253 34.2786 55.4003C35.6985 51.8506 42.5612 48.4489 45.3713 47.8572C45.7263 53.5367 38.272 72.409 34.7223 80.2478H33.3912Z" fill="white" stroke="#575757" stroke-width="1.82727"/>
<path d="M27.627 59.8396L33.8389 55.8462L40.0508 59.8396L36.5011 62.5018V63.3892V73.1508L33.8389 79.3627L31.6203 73.1508V62.5018L27.627 59.8396Z" fill="white"/>
<path d="M36.5011 62.5018L40.0508 59.8396L33.8389 55.8462L27.627 59.8396L31.6203 62.5018M36.5011 62.5018H31.6203M36.5011 62.5018V63.3892V73.1508L33.8389 79.3627L31.6203 73.1508V62.5018" stroke="#575757" stroke-width="1.82727"/>
<path d="M16.5359 10.1437L16.5356 21.2364C13.3409 23.7212 16.0922 28.04 17.867 29.6669H20.5292C20.5292 36.0563 28.516 41.4991 32.5094 43.4219H36.059C42.0935 42.357 47.7434 33.8082 49.814 29.6669H51.5888C54.7836 26.4722 52.92 23.0113 51.5888 21.6801C51.7368 19.6095 51.9438 14.4033 51.5888 10.1437C51.2339 5.8841 45.8206 2.45275 43.1584 1.26953H26.2975C21.3279 1.26953 17.7191 7.18565 16.5359 10.1437Z" stroke="#575757" stroke-width="1.82727"/>
<path d="M22.6876 18.6494C22.3359 22.1124 18.2915 21.2467 16.9727 20.8138V11.2904C17.3335 8.15296 19.6389 1.75632 25.9734 1.26905C32.3079 0.781776 39.1704 1.06602 41.8098 1.26905C44.8552 1.85909 51.1898 4.68941 52.1643 11.2904V21.6656L51.1294 21.6721C51.8285 21.6759 51.9144 21.6795 49.9435 21.6795C49.7901 21.6795 49.6437 21.6748 49.5039 21.6656C46.7596 21.4861 46.5874 19.6105 46.8662 18.6494C46.8662 16.7735 46.6904 12.6756 45.987 11.2904C45.1078 9.55882 39.3928 9.99176 39.8324 11.2904C40.2721 12.589 32.3591 13.8877 29.7214 11.2904C27.6113 9.21255 24.153 10.4246 22.6876 11.2904C22.8341 12.3004 23.0393 15.1863 22.6876 18.6494Z" fill="#575757"/>
<path d="M49.9435 21.6795C49.7901 21.6795 49.6437 21.6748 49.5039 21.6656M49.9435 21.6795C53.1087 21.6795 50.9693 21.6703 49.5039 21.6656M49.9435 21.6795L52.1643 21.6656V11.2904C51.1898 4.68941 44.8552 1.85909 41.8098 1.26905C39.1704 1.06602 32.3079 0.781776 25.9734 1.26905C19.6389 1.75632 17.3335 8.15296 16.9727 11.2904V20.8138C18.2915 21.2467 22.3359 22.1124 22.6876 18.6494C23.0393 15.1863 22.8341 12.3004 22.6876 11.2904C24.153 10.4246 27.6113 9.21255 29.7214 11.2904C32.3591 13.8877 40.2721 12.589 39.8324 11.2904C39.3928 9.99176 45.1078 9.55882 45.987 11.2904C46.6904 12.6756 46.8662 16.7735 46.8662 18.6494C46.5874 19.6105 46.7596 21.4861 49.5039 21.6656" stroke="#575757" stroke-width="1.82727"/>
<path d="M20.9629 20.7915V32.3279M48.4728 20.7915V32.3279" stroke="#575757" stroke-width="1.82727"/>
<circle cx="28.5033" cy="25.2299" r="1.77483" fill="#575757"/>
<circle cx="40.0444" cy="25.2299" r="1.77483" fill="#575757"/>
<path d="M30.2793 34.1021C31.6104 35.8769 35.5151 37.2968 38.7098 34.1021" stroke="#575757" stroke-width="1.82727" stroke-linecap="round" stroke-linejoin="round"/>
</svg>
