<svg width="84" height="84" viewBox="0 0 84 84" fill="none" xmlns="http://www.w3.org/2000/svg">
<g clip-path="url(#clip0)">
<mask id="path-1-inside-1" fill="white">
<path d="M67.2357 52.9548C68.1028 51.9492 68.6288 50.6417 68.6288 49.2127C68.6288 46.0481 66.0543 43.4735 62.8894 43.4735L44.2704 43.451C44.2678 43.4437 44.0618 42.8461 43.931 42.5665C43.9303 42.565 43.9295 42.5632 43.9288 42.5618C43.646 41.9578 43.5408 41.2981 43.625 40.6542C43.8979 38.5656 43.9654 36.3967 44.0197 34.6542C44.1595 30.1845 43.2674 26.92 41.2923 24.6738C39.3078 22.4168 36.4545 21.1265 33.4541 21.1265C33.4316 21.1265 33.4089 21.1265 33.3862 21.1266C31.7006 21.1376 30.3292 22.5321 30.3292 24.2355V29.6692C30.3292 33.1266 29.7694 37.9376 27.1029 41.2223C24.2741 44.7068 21.8312 44.6766 17.7857 44.6269C17.6469 44.6253 17.5068 44.6235 17.3654 44.622V43.1538C17.3654 40.7191 15.3844 38.7383 12.9498 38.7383H4.41556C1.98097 38.7381 0 40.7189 0 43.1537V55.438C0 56.1136 0.547561 56.6613 1.22333 56.6613C1.89909 56.6613 2.44665 56.1136 2.44665 55.438V43.1537C2.44665 42.068 3.32989 41.1848 4.41556 41.1848H12.9496C14.0353 41.1848 14.9185 42.068 14.9185 43.1537V78.8853C14.9185 79.9709 14.0353 80.8542 12.9496 80.8542H4.41556C3.32989 80.8542 2.44665 79.9709 2.44665 78.8853V61.0195C2.44665 60.3439 1.89909 59.7961 1.22333 59.7961C0.547561 59.7961 0 60.3439 0 61.0195V78.8853C0 81.32 1.98097 83.3008 4.41556 83.3008H12.9496C15.3844 83.3008 17.3652 81.32 17.3652 78.8853V77.0377H19.0191C19.8192 77.0377 20.6114 77.3173 21.2493 77.8252C21.4143 77.9563 21.6062 78.1204 21.8289 78.3105C23.3587 79.6165 26.2059 82.0476 30.2817 82.0476L60.3103 82.048C63.475 82.048 66.0497 79.4734 66.0497 76.3088C66.0497 74.9419 65.5687 73.6858 64.768 72.699C67.0127 71.9191 68.629 69.7839 68.629 67.277C68.629 65.8484 68.1029 64.5409 67.236 63.5353C69.2987 62.6644 70.7499 60.6212 70.7499 58.2453C70.7499 55.8691 69.2983 53.8258 67.2357 52.9548ZM52.4481 45.9204H62.8896C64.7052 45.9204 66.1823 47.3975 66.1823 49.2129C66.1823 51.0285 64.7052 52.5056 62.8896 52.5056H52.4481C50.6325 52.5056 49.1554 51.0285 49.1554 49.2129C49.1554 47.3973 50.6325 45.9204 52.4481 45.9204ZM45.1721 79.601H30.2819C27.1084 79.601 24.8875 77.7047 23.4177 76.4499C23.1881 76.2536 22.9711 76.0685 22.7731 75.9109C21.7038 75.0598 20.3707 74.5912 19.0193 74.5912H17.3654V47.0687C17.4967 47.0701 17.6268 47.0718 17.7557 47.0734C22.0414 47.1253 25.4277 47.1678 29.0026 42.7643C30.7241 40.6439 32.776 36.6508 32.776 29.6692V24.2357C32.776 23.8728 33.0571 23.5757 33.4024 23.5734C33.4188 23.5733 33.435 23.5733 33.4515 23.5733C35.7164 23.5733 37.9575 24.5864 39.4552 26.2896C41.0009 28.0472 41.6941 30.7584 41.5745 34.578C41.5218 36.2668 41.4563 38.3688 41.1992 40.3376C41.0545 41.4446 41.2323 42.5727 41.7132 43.5995C41.7156 43.6045 41.7185 43.6115 41.7211 43.6176C41.7252 43.6265 41.7288 43.6347 41.7339 43.6464C41.7347 43.6482 41.7355 43.6504 41.7365 43.6525C42.1276 44.5701 42.4253 45.5695 42.4716 46.5744C42.5294 47.8266 42.2774 49.0871 41.719 50.3284C41.7078 50.354 40.5503 52.9049 37.362 54.3197C36.7445 54.5937 36.4661 55.3165 36.7399 55.934C37.6873 58.0701 41.2047 54.859 42.0728 53.9592C42.8089 53.1962 43.5207 52.3034 43.9535 51.325C44.6676 49.7376 44.9913 48.1013 44.9157 46.462C44.9073 46.2799 44.8905 46.0905 44.8682 45.898H47.7675C47.1018 46.8351 46.7089 47.9786 46.7089 49.2131C46.7089 51.5891 48.1602 53.6324 50.2231 54.5032C49.356 55.5088 48.83 56.8163 48.83 58.2453C48.83 59.674 49.356 60.9815 50.2228 61.987C48.1601 62.8579 46.7089 64.9012 46.7089 67.277C46.7089 68.6439 47.1899 69.9002 47.9906 70.887C45.7459 71.6668 44.1296 73.8021 44.1296 76.3089C44.1296 77.5331 44.5162 78.6682 45.1721 79.601ZM60.3103 79.6013L49.8626 79.601C48.05 79.5976 46.5763 78.1222 46.5763 76.3088C46.5763 74.4932 48.0534 73.0162 49.869 73.0162H60.3105C62.1261 73.0162 63.6032 74.4932 63.6032 76.3088C63.6032 78.1243 62.1259 79.6013 60.3103 79.6013ZM62.8894 70.5694H52.4481C50.6325 70.5694 49.1554 69.0923 49.1554 67.2767C49.1554 65.4613 50.6325 63.9842 52.4481 63.9842H62.8896C64.7052 63.9842 66.1823 65.4613 66.1823 67.2767C66.1821 69.0924 64.705 70.5694 62.8894 70.5694ZM65.0105 61.5377H54.569C52.7534 61.5377 51.2763 60.0605 51.2763 58.2451C51.2763 56.4296 52.7534 54.9524 54.569 54.9524H65.0105C66.8261 54.9524 68.3032 56.4296 68.3032 58.2451C68.3032 60.0605 66.8261 61.5377 65.0105 61.5377Z"/>
</mask>
<path d="M67.2357 52.9548C68.1028 51.9492 68.6288 50.6417 68.6288 49.2127C68.6288 46.0481 66.0543 43.4735 62.8894 43.4735L44.2704 43.451C44.2678 43.4437 44.0618 42.8461 43.931 42.5665C43.9303 42.565 43.9295 42.5632 43.9288 42.5618C43.646 41.9578 43.5408 41.2981 43.625 40.6542C43.8979 38.5656 43.9654 36.3967 44.0197 34.6542C44.1595 30.1845 43.2674 26.92 41.2923 24.6738C39.3078 22.4168 36.4545 21.1265 33.4541 21.1265C33.4316 21.1265 33.4089 21.1265 33.3862 21.1266C31.7006 21.1376 30.3292 22.5321 30.3292 24.2355V29.6692C30.3292 33.1266 29.7694 37.9376 27.1029 41.2223C24.2741 44.7068 21.8312 44.6766 17.7857 44.6269C17.6469 44.6253 17.5068 44.6235 17.3654 44.622V43.1538C17.3654 40.7191 15.3844 38.7383 12.9498 38.7383H4.41556C1.98097 38.7381 0 40.7189 0 43.1537V55.438C0 56.1136 0.547561 56.6613 1.22333 56.6613C1.89909 56.6613 2.44665 56.1136 2.44665 55.438V43.1537C2.44665 42.068 3.32989 41.1848 4.41556 41.1848H12.9496C14.0353 41.1848 14.9185 42.068 14.9185 43.1537V78.8853C14.9185 79.9709 14.0353 80.8542 12.9496 80.8542H4.41556C3.32989 80.8542 2.44665 79.9709 2.44665 78.8853V61.0195C2.44665 60.3439 1.89909 59.7961 1.22333 59.7961C0.547561 59.7961 0 60.3439 0 61.0195V78.8853C0 81.32 1.98097 83.3008 4.41556 83.3008H12.9496C15.3844 83.3008 17.3652 81.32 17.3652 78.8853V77.0377H19.0191C19.8192 77.0377 20.6114 77.3173 21.2493 77.8252C21.4143 77.9563 21.6062 78.1204 21.8289 78.3105C23.3587 79.6165 26.2059 82.0476 30.2817 82.0476L60.3103 82.048C63.475 82.048 66.0497 79.4734 66.0497 76.3088C66.0497 74.9419 65.5687 73.6858 64.768 72.699C67.0127 71.9191 68.629 69.7839 68.629 67.277C68.629 65.8484 68.1029 64.5409 67.236 63.5353C69.2987 62.6644 70.7499 60.6212 70.7499 58.2453C70.7499 55.8691 69.2983 53.8258 67.2357 52.9548ZM52.4481 45.9204H62.8896C64.7052 45.9204 66.1823 47.3975 66.1823 49.2129C66.1823 51.0285 64.7052 52.5056 62.8896 52.5056H52.4481C50.6325 52.5056 49.1554 51.0285 49.1554 49.2129C49.1554 47.3973 50.6325 45.9204 52.4481 45.9204ZM45.1721 79.601H30.2819C27.1084 79.601 24.8875 77.7047 23.4177 76.4499C23.1881 76.2536 22.9711 76.0685 22.7731 75.9109C21.7038 75.0598 20.3707 74.5912 19.0193 74.5912H17.3654V47.0687C17.4967 47.0701 17.6268 47.0718 17.7557 47.0734C22.0414 47.1253 25.4277 47.1678 29.0026 42.7643C30.7241 40.6439 32.776 36.6508 32.776 29.6692V24.2357C32.776 23.8728 33.0571 23.5757 33.4024 23.5734C33.4188 23.5733 33.435 23.5733 33.4515 23.5733C35.7164 23.5733 37.9575 24.5864 39.4552 26.2896C41.0009 28.0472 41.6941 30.7584 41.5745 34.578C41.5218 36.2668 41.4563 38.3688 41.1992 40.3376C41.0545 41.4446 41.2323 42.5727 41.7132 43.5995C41.7156 43.6045 41.7185 43.6115 41.7211 43.6176C41.7252 43.6265 41.7288 43.6347 41.7339 43.6464C41.7347 43.6482 41.7355 43.6504 41.7365 43.6525C42.1276 44.5701 42.4253 45.5695 42.4716 46.5744C42.5294 47.8266 42.2774 49.0871 41.719 50.3284C41.7078 50.354 40.5503 52.9049 37.362 54.3197C36.7445 54.5937 36.4661 55.3165 36.7399 55.934C37.6873 58.0701 41.2047 54.859 42.0728 53.9592C42.8089 53.1962 43.5207 52.3034 43.9535 51.325C44.6676 49.7376 44.9913 48.1013 44.9157 46.462C44.9073 46.2799 44.8905 46.0905 44.8682 45.898H47.7675C47.1018 46.8351 46.7089 47.9786 46.7089 49.2131C46.7089 51.5891 48.1602 53.6324 50.2231 54.5032C49.356 55.5088 48.83 56.8163 48.83 58.2453C48.83 59.674 49.356 60.9815 50.2228 61.987C48.1601 62.8579 46.7089 64.9012 46.7089 67.277C46.7089 68.6439 47.1899 69.9002 47.9906 70.887C45.7459 71.6668 44.1296 73.8021 44.1296 76.3089C44.1296 77.5331 44.5162 78.6682 45.1721 79.601ZM60.3103 79.6013L49.8626 79.601C48.05 79.5976 46.5763 78.1222 46.5763 76.3088C46.5763 74.4932 48.0534 73.0162 49.869 73.0162H60.3105C62.1261 73.0162 63.6032 74.4932 63.6032 76.3088C63.6032 78.1243 62.1259 79.6013 60.3103 79.6013ZM62.8894 70.5694H52.4481C50.6325 70.5694 49.1554 69.0923 49.1554 67.2767C49.1554 65.4613 50.6325 63.9842 52.4481 63.9842H62.8896C64.7052 63.9842 66.1823 65.4613 66.1823 67.2767C66.1821 69.0924 64.705 70.5694 62.8894 70.5694ZM65.0105 61.5377H54.569C52.7534 61.5377 51.2763 60.0605 51.2763 58.2451C51.2763 56.4296 52.7534 54.9524 54.569 54.9524H65.0105C66.8261 54.9524 68.3032 56.4296 68.3032 58.2451C68.3032 60.0605 66.8261 61.5377 65.0105 61.5377Z" stroke="#007BC0" stroke-width="8" mask="url(#path-1-inside-1)"/>
</g>
<defs>
<clipPath id="clip0">
<rect width="83.44" height="83.44" fill="white"/>
</clipPath>
</defs>
</svg>
