<svg width="84" height="84" viewBox="0 0 84 84" fill="none" xmlns="http://www.w3.org/2000/svg">
<g clip-path="url(#clip0)">
<path d="M29.9426 62.9082C29.2689 62.9082 28.7227 63.4542 28.7227 64.1281V70.5527C28.7227 71.2266 29.2689 71.7726 29.9426 71.7726C30.6163 71.7726 31.1625 71.2266 31.1625 70.5527V64.1281C31.1625 63.4542 30.6163 62.9082 29.9426 62.9082Z" fill="#1E0AFF"/>
<path d="M53.5559 62.9082C52.8821 62.9082 52.3359 63.4542 52.3359 64.1281V70.5527C52.3359 71.2266 52.8821 71.7726 53.5559 71.7726C54.2296 71.7726 54.7758 71.2266 54.7758 70.5527V64.1281C54.7758 63.4542 54.2296 62.9082 53.5559 62.9082Z" fill="#1E0AFF"/>
<path d="M77.259 58.6493L73.1742 57.0106V55.9673C73.9761 55.5216 74.6961 54.9417 75.3019 54.2573C77.8857 54.5623 80.358 53.5309 81.9583 51.4559C83.6134 49.3101 83.9577 46.5448 82.8796 44.0586L81.0453 39.8292C80.9074 39.5114 80.8126 39.1761 80.7631 38.8332C80.3679 36.086 78.9949 33.572 76.8971 31.7544C74.7993 29.9368 72.1155 28.9359 69.3399 28.9359C66.5644 28.9359 63.8805 29.9368 61.7828 31.7544C59.6852 33.572 58.312 36.0858 57.9168 38.8332C57.8673 39.1763 57.7725 39.5115 57.6345 39.8292L55.8004 44.0586C54.7224 46.5446 55.0667 49.3099 56.7217 51.4559C58.1375 53.2914 60.2351 54.3144 62.4887 54.3142C62.7794 54.3142 63.073 54.297 63.368 54.2623C63.9178 54.8858 64.5626 55.4227 65.2807 55.8502V57.0104L61.1961 58.6493C60.9298 58.7562 60.6699 58.8771 60.4165 59.0108C59.6261 57.5571 58.4978 56.2859 57.0937 55.3202L51.7734 51.6613C51.8041 50.9894 51.5354 50.3125 50.9881 49.8482L48.8262 48.0137C48.6213 47.8397 48.391 47.7083 48.1476 47.619V45.1492C50.4328 43.4917 52.0532 40.9735 52.5281 38.0733H52.6582C54.9842 38.0733 56.8766 36.181 56.8766 33.8551C56.8766 32.8621 56.5308 31.9487 55.9545 31.2273L56.8265 25.0283C57.455 20.5595 54.3351 16.3839 49.8713 15.7199L49.6977 15.6942C48.2704 13.3647 46.0598 11.684 43.4073 10.9318L43.088 10.8412C39.5714 9.84415 35.8098 10.4393 32.7678 12.4745C32.2078 12.8491 32.0575 13.6067 32.4321 14.1666C32.8067 14.7264 33.5642 14.8769 34.1244 14.5021C36.5709 12.8655 39.5953 12.3868 42.4224 13.1885L42.7417 13.2791C44.9612 13.9084 46.7831 15.3751 47.8719 17.409C48.621 18.8083 48.9516 20.3472 48.8562 21.8866L48.0292 21.1758C47.2733 20.5261 46.1619 20.5089 45.3867 21.1351L44.3019 22.0113H38.1098C34.0917 22.0113 30.8226 25.2804 30.8226 29.2985V29.6373C30.4991 29.6384 30.1845 29.6772 29.882 29.7476C28.5028 25.865 28.8917 21.4905 30.9646 17.9122C31.3023 17.3291 31.1035 16.5828 30.5206 16.245C29.9376 15.9075 29.1913 16.1061 28.8535 16.6891C26.3466 21.0167 25.9402 26.3373 27.7424 30.9939C27.0464 31.7463 26.6201 32.7517 26.6201 33.8551C26.6201 36.181 28.5124 38.0733 30.8384 38.0733H30.9685C31.4435 40.9735 33.0639 43.4917 35.349 45.1492V47.619C35.1057 47.7081 34.8754 47.8397 34.6706 48.0136L32.5085 49.8482C31.9612 50.3125 31.6925 50.9895 31.7232 51.6613L26.4029 55.3202C25.3217 56.0637 24.4037 56.9883 23.6776 58.0379C23.207 57.778 22.7166 57.5558 22.2088 57.3759L18.5965 56.0964V55.135C20.4365 53.9982 21.7592 52.1032 22.1277 49.8892H22.6735C24.8139 49.8892 26.5552 48.1479 26.5552 46.0077C26.5552 45.0467 26.2035 44.1671 25.623 43.4885L25.8408 40.9102C26.1435 37.1974 24.5234 33.6756 21.507 31.49C18.4905 29.304 14.6393 28.8611 11.2053 30.3048L8.77374 31.3271C5.00873 32.1583 2.49228 35.766 3.02986 39.5982L3.57378 43.4759C2.98691 44.1562 2.63086 45.0409 2.63086 46.0077C2.63086 48.1479 4.3721 49.8892 6.51249 49.8892H7.05836C7.40287 51.9596 8.58229 53.7503 10.2385 54.9037V56.0964L6.62619 57.3757C6.12032 57.555 5.62195 57.7794 5.14504 58.0433C4.55541 58.3692 4.34168 59.1114 4.66764 59.7011C4.89016 60.1036 5.30672 60.3309 5.73629 60.3309C5.93587 60.3309 6.13838 60.2818 6.32543 60.1783C6.68539 59.9792 7.06064 59.81 7.44044 59.6755L10.5618 58.57C11.1939 60.0765 12.6838 61.1373 14.4173 61.1373C16.1507 61.1373 17.6406 60.0765 18.2727 58.57L21.3941 59.6757C21.7867 59.8146 22.1657 59.9875 22.5289 60.1905C22.0444 61.4189 21.7846 62.7426 21.7846 64.1009V71.3382C21.7846 72.012 22.3308 72.5581 23.0045 72.5581C23.6783 72.5581 24.2245 72.012 24.2245 71.3382V64.1009C24.2245 61.395 25.5556 58.864 27.7852 57.3307L32.8659 53.8365L34.9484 56.6208C35.396 57.2194 36.0979 57.5566 36.8219 57.5566C37.0473 57.5566 37.275 57.5239 37.4977 57.4561L40.5281 56.5338V71.8489C40.5281 72.5228 41.0743 73.0688 41.7481 73.0688C42.4218 73.0688 42.968 72.5228 42.968 71.8489V56.5338L45.9988 57.4563C46.2214 57.5239 46.4488 57.5566 46.6743 57.5566C47.3981 57.5566 48.1001 57.2193 48.5478 56.6208L50.6301 53.8365L55.7108 57.3307C57.9405 58.864 59.2715 61.395 59.2715 64.1009V71.3382C59.2715 72.012 59.8177 72.5581 60.4914 72.5581C61.1652 72.5581 61.7114 72.012 61.7114 71.3382V64.1009C61.7114 63.1401 61.5811 62.1965 61.3338 61.2915C61.5811 61.1472 61.8382 61.0207 62.1042 60.914L65.6463 59.4927C66.2739 60.8434 67.6426 61.7827 69.2274 61.7827C70.8121 61.7827 72.1809 60.8436 72.8084 59.4929L76.3508 60.914C78.5907 61.8125 80.0378 63.9526 80.0378 66.3659V68.4308C80.0378 69.1047 80.5841 69.6508 81.2578 69.6508C81.9315 69.6508 82.4777 69.1047 82.4777 68.4308V66.3659C82.4775 62.9501 80.429 59.9213 77.259 58.6493ZM29.0594 33.855C29.0594 32.8797 29.8488 32.0859 30.8221 32.0773V35.6323C29.8489 35.6239 29.0594 34.8303 29.0594 33.855ZM22.6732 47.4491H22.2327V44.5656H22.6732C23.4683 44.5656 24.115 45.2125 24.115 46.0074C24.115 46.8023 23.4683 47.4491 22.6732 47.4491ZM5.07038 46.0075C5.07038 45.2125 5.7171 44.5657 6.51216 44.5657H6.95264V47.4493H6.51216C5.71726 47.4492 5.07038 46.8024 5.07038 46.0075ZM8.43427 38.3654C7.62506 39.4829 7.13579 40.7697 6.99574 42.1257H6.51216C6.28835 42.1257 6.06941 42.1459 5.85585 42.1823L5.44579 39.2589C5.08111 36.6597 6.81048 34.2143 9.38272 33.6917C9.46145 33.6757 9.53855 33.652 9.61272 33.6208L12.1508 32.5536C14.7927 31.4428 17.755 31.7839 20.0753 33.4651C22.3956 35.1466 23.6418 37.8555 23.4092 40.7079L23.2853 42.1742C23.0859 42.1425 22.8816 42.1256 22.6732 42.1256H22.222C22.1169 41.0912 21.241 40.2812 20.1794 40.2812H17.167C15.0201 40.2812 12.8956 39.5667 11.1851 38.2695L10.84 38.0078C10.4776 37.7329 10.0114 37.6135 9.56197 37.6805C9.11206 37.7475 8.70103 37.9972 8.43427 38.3654ZM10.4104 39.7965C10.4101 39.797 10.4099 39.7973 10.4097 39.7976C10.4099 39.7973 10.4102 39.797 10.4104 39.7965ZM9.39264 42.9377C9.39264 42.0555 9.60524 41.2028 10.0124 40.4351C12.09 41.9118 14.6159 42.7214 17.1671 42.7214H19.7929V48.6313C19.7929 51.4988 17.4601 53.8316 14.5928 53.8316C11.7255 53.8316 9.39264 51.4988 9.39264 48.6313V42.9377ZM14.4171 58.6975C13.4581 58.6975 12.678 57.9172 12.678 56.9584V56.0283C13.2901 56.1869 13.9317 56.2715 14.5928 56.2715C15.1286 56.2715 15.6513 56.2155 16.1564 56.1099V56.9584C16.1564 57.9172 15.3761 58.6975 14.4171 58.6975ZM52.6735 35.6323V32.0773C53.6469 32.0858 54.4362 32.8797 54.4362 33.855C54.4362 34.8303 53.6469 35.6239 52.6735 35.6323ZM54.4099 24.688L53.6955 29.7661C53.3682 29.683 53.0258 29.6383 52.6734 29.637V29.5383C52.6734 27.5714 52.065 25.6796 50.9634 24.0987C51.4437 22.2486 51.4268 20.3439 50.9295 18.5336C53.2859 19.5393 54.7824 22.0404 54.4099 24.688ZM33.2621 36.3018V29.2982C33.2621 26.6252 35.4367 24.4508 38.1094 24.4508H44.7328C45.0118 24.4508 45.2823 24.3552 45.4993 24.18L46.6757 23.2296L47.7686 24.169C49.3352 25.5154 50.2335 27.4727 50.2335 29.5383V36.3017C50.2335 40.9808 46.4269 44.7874 41.7477 44.7874C37.0686 44.7874 33.2621 40.9808 33.2621 36.3018ZM41.7479 47.2274C43.1443 47.2274 44.4787 46.9613 45.7075 46.4818V48.045L41.7479 49.9864L37.7884 48.045V46.4818C39.0169 46.9612 40.3515 47.2274 41.7479 47.2274ZM36.8578 55.1002L34.2299 51.5866L36.1488 49.9583L40.5278 52.1053V53.9832L36.8578 55.1002ZM46.6378 55.1002L42.9678 53.9834V52.1055L47.3469 49.9584L49.2657 51.5868L46.6378 55.1002ZM58.6534 49.9658C57.549 48.5337 57.3192 46.6886 58.0387 45.0295L59.8729 40.8001C60.097 40.2835 60.2514 39.7388 60.3316 39.1808C60.9719 34.7314 64.8446 31.3759 69.3399 31.3759C73.8353 31.3759 77.708 34.7314 78.3482 39.1808C78.4284 39.7386 78.5827 40.2833 78.8069 40.8001L80.641 45.0295C81.3604 46.6884 81.1307 48.5337 80.0263 49.9658C79.2085 51.026 78.0495 51.6787 76.7776 51.8353C77.0403 51.1528 77.2115 50.4253 77.2745 49.667C77.3301 48.9955 76.8307 48.4061 76.1595 48.3504C75.4887 48.2959 74.8987 48.7942 74.8429 49.4654C74.6079 52.3033 72.1907 54.5263 69.3399 54.5263C66.2939 54.5263 63.816 52.0484 63.816 49.0024V43.1501C63.816 41.8525 64.1979 40.5763 64.9014 39.493C66.48 40.6979 68.4258 41.3871 70.4135 41.4396L74.8639 41.5571V44.3671C74.8639 45.041 75.4101 45.5871 76.0838 45.5871C76.7576 45.5871 77.3038 45.041 77.3038 44.3671V41.2267C77.3038 40.0794 76.4053 39.1569 75.2584 39.1268L70.4777 39.0009C68.9297 38.96 67.4159 38.3993 66.215 37.4225L65.8998 37.166C65.5279 36.8636 65.0609 36.7251 64.5842 36.7763C64.1078 36.8272 63.6805 37.0614 63.3814 37.4354C62.0881 39.0512 61.3756 41.0808 61.3756 43.1506V49.0028C61.3756 49.9994 61.5612 50.9531 61.8971 51.8331C60.6274 51.6753 59.4701 51.0247 58.6534 49.9658ZM69.2272 59.3427C68.3962 59.3427 67.7201 58.6667 67.7201 57.8356V56.8003C68.2433 56.9087 68.785 56.9663 69.3398 56.9663C69.8144 56.9663 70.2801 56.9218 70.7342 56.8398V57.8357C70.7344 58.6667 70.0582 59.3427 69.2272 59.3427Z" fill="#1E0AFF"/>
<path d="M2.6772 61.8056C2.07082 61.5114 1.3413 61.7654 1.04755 62.3718C0.393994 63.722 0.0625 65.1661 0.0625 66.664V70.5528C0.0625 71.2267 0.6087 71.7727 1.28242 71.7727C1.95614 71.7727 2.50234 71.2267 2.50234 70.5528V66.664C2.50234 65.5374 2.7517 64.4512 3.24373 63.4351C3.53733 62.8287 3.28375 62.0991 2.6772 61.8056Z" fill="#1E0AFF"/>
</g>
<defs>
<clipPath id="clip0">
<rect width="83.4368" height="83.4368" fill="white" transform="translate(0.0644531)"/>
</clipPath>
</defs>
</svg>
