<svg width="84" height="77" viewBox="0 0 84 77" fill="none" xmlns="http://www.w3.org/2000/svg">
<path d="M16.398 18.042L16.3981 18.0419L45.0028 2.68283L45.0041 2.68212C45.4782 2.42842 46.0474 2.42726 46.5238 2.68306C46.5238 2.68309 46.5239 2.68312 46.5239 2.68314L75.128 18.0419L75.1281 18.042C75.8652 18.4379 75.9755 19.1381 75.9755 19.459C75.9755 19.7804 75.8649 20.48 75.1281 20.8758L75.128 20.8759L46.5248 36.2343L16.398 18.042ZM16.398 18.042C15.6609 18.4379 15.5506 19.1381 15.5506 19.459C15.5506 19.7802 15.6611 20.4804 16.3987 20.8759L30.0565 28.2095L30.0567 28.2096C30.409 28.3987 30.5412 28.8376 30.352 29.1897L30.3517 29.1904C30.1629 29.5424 29.7242 29.6748 29.3721 29.4855L29.3716 29.4853L23.4121 26.2854L21.8774 25.4613V27.2033V41.7536C21.8774 46.4015 25.657 50.1811 30.3052 50.1811H61.4566C66.1048 50.1811 69.8844 46.4015 69.8844 41.7536V27.0771V25.3351L68.3496 26.1592L47.2088 37.5107L47.2085 37.5109C46.7549 37.7547 46.2587 37.8758 45.7632 37.8758C45.2676 37.8758 44.7714 37.7547 44.3175 37.5108L44.3173 37.5107L36.2132 33.1592L36.213 33.1591C35.8607 32.97 35.7285 32.5313 35.9177 32.1789C36.1072 31.826 36.546 31.6942 36.8977 31.8832L36.898 31.8834M16.398 18.042L36.898 31.8834M36.898 31.8834L45.0017 36.2346C45.0018 36.2347 45.0019 36.2347 45.0021 36.2348M36.898 31.8834L45.0021 36.2348M45.0021 36.2348C45.0022 36.2348 45.0022 36.2349 45.0023 36.235M45.0021 36.2348L45.0023 36.235M45.0023 36.235C45.4774 36.4902 46.0479 36.4906 46.5235 36.235H45.0023ZM15.7131 22.1516L15.7129 22.1515C14.7191 21.6182 14.1024 20.5874 14.1024 19.4592L14.1024 19.4591C14.1022 18.3309 14.7188 17.3 15.7131 16.7661L15.2338 15.8736L15.7131 16.7661L44.3173 1.40706L44.3175 1.40695C45.2236 0.920133 46.3031 0.920197 47.2089 1.40707L47.2093 1.40729L75.813 16.7661C75.813 16.7661 75.813 16.7661 75.813 16.7661C76.8071 17.3 77.4237 18.3309 77.4237 19.459V55.2478V56.033L78.1785 56.2493C80.4276 56.8941 82.0759 58.969 82.0759 61.4169C82.0759 64.3804 79.6632 66.7932 76.6996 66.7932C73.7361 66.7932 71.3233 64.3804 71.3233 61.4169C71.3233 58.969 72.9715 56.8943 75.2208 56.2493L75.9755 56.0329V55.2478V23.8065V22.0646L74.4408 22.8886L71.8816 24.2628L71.3326 24.5576V25.1807V41.7536C71.3326 47.1981 66.9012 51.6293 61.4566 51.6293H30.305C24.8603 51.6293 20.429 47.1981 20.429 41.7536V25.3069V24.6838L19.88 24.389L15.7131 22.1516ZM76.6998 65.345C78.8667 65.345 80.628 63.5838 80.628 61.4169C80.628 59.2503 78.8668 57.4887 76.6998 57.4887C74.533 57.4887 72.7717 59.25 72.7717 61.4169C72.7717 63.5838 74.533 65.345 76.6998 65.345Z" stroke="#FB961E" stroke-width="2.08375"/>
</svg>
